<svg xmlns="http://www.w3.org/2000/svg" width="62.971" height="71.966" viewBox="0 0 62.971 71.966">
  <g id="Group_22843" data-name="Group 22843" transform="translate(0.5 0.5)">
    <circle id="Ellipse_1750" data-name="Ellipse 1750" cx="14" cy="14" r="14" transform="translate(17.406 16.982)" fill="#fddad2"/>
    <path id="Rectangle_14723" data-name="Rectangle 14723" d="M0,0H14a0,0,0,0,1,0,0V5a7,7,0,0,1-7,7H7A7,7,0,0,1,0,5V0A0,0,0,0,1,0,0Z" transform="translate(24.406 56.982)" fill="#fddad2"/>
    <g id="Group_22774" data-name="Group 22774">
      <path id="Path_19695" data-name="Path 19695" d="M48.99,88.97a5.49,5.49,0,0,1-5.3-4.124.5.5,0,0,0-.484-.374H41.493a1,1,0,0,1-1-1v-9c0-3.337-2.143-5.268-4.857-7.713C31.8,63.311,27.038,59.017,27,48.994v0s0-.028,0-.049A21.937,21.937,0,0,1,46.539,27.145c.045-.005.09-.013.135-.02.027,0,.054-.009.081-.012.752-.075,1.5-.113,2.235-.113s1.483.038,2.236.113c.025,0,.051.007.077.012.043.007.086.014.13.019a21.933,21.933,0,0,1,19.545,21.8c0,.011,0,.041,0,.056-.039,10.021-4.8,14.314-8.634,17.764-2.717,2.448-4.86,4.379-4.86,7.716v9a1,1,0,0,1-1,1H54.774a.5.5,0,0,0-.484.374,5.49,5.49,0,0,1-5.3,4.124m-2.581-4.5a.5.5,0,0,0-.431.752,3.471,3.471,0,0,0,6.026,0,.5.5,0,0,0-.431-.752Zm-3.416-4.5a.5.5,0,0,0-.5.5v1.5a.5.5,0,0,0,.5.5H54.987a.5.5,0,0,0,.5-.5v-1.5a.5.5,0,0,0-.5-.5Zm0-4.5a.5.5,0,0,0-.5.5v1.5a.5.5,0,0,0,.5.5H54.987a.5.5,0,0,0,.5-.5v-1.5a.5.5,0,0,0-.5-.5ZM48.99,29a20.216,20.216,0,0,0-2.033.1c-.04,0-.078.01-.117.017l-.047.008A19.955,19.955,0,0,0,29,48.987c.035,9.139,4.252,12.937,7.973,16.289,2.514,2.265,4.889,4.4,5.409,7.779a.5.5,0,0,0,.494.423H55.1a.5.5,0,0,0,.494-.423c.52-3.374,2.895-5.514,5.409-7.779,3.72-3.351,7.937-7.15,7.973-16.287a19.955,19.955,0,0,0-17.8-19.864l-.046-.007c-.037-.006-.075-.012-.113-.016A20.2,20.2,0,0,0,48.99,29" transform="translate(-18.004 -18.005)" fill="#8f74a2" stroke="#8f74a2" stroke-width="1"/>
      <path id="Path_19696" data-name="Path 19696" d="M91,5a1,1,0,0,1-1-1V1a1,1,0,0,1,2,0V4a1,1,0,0,1-1,1" transform="translate(-60.014)" fill="#8f74a2" stroke="#8f74a2" stroke-width="1"/>
      <path id="Path_19697" data-name="Path 19697" d="M1,92a1,1,0,0,1,0-2H4a1,1,0,0,1,0,2Z" transform="translate(0 -60.015)" fill="#8f74a2" stroke="#8f74a2" stroke-width="1"/>
      <path id="Path_19698" data-name="Path 19698" d="M172,92a1,1,0,0,1,0-2h3a1,1,0,0,1,0,2Z" transform="translate(-114.027 -60.015)" fill="#8f74a2" stroke="#8f74a2" stroke-width="1"/>
      <path id="Path_19699" data-name="Path 19699" d="M31,27.5a.992.992,0,0,1-.707-.293l-3-3a1,1,0,1,1,1.413-1.413l3,3A1,1,0,0,1,31,27.5" transform="translate(-18.003 -15.003)" fill="#8f74a2" stroke="#8f74a2" stroke-width="1"/>
      <path id="Path_19700" data-name="Path 19700" d="M152.5,149a.992.992,0,0,1-.707-.293l-3-3a1,1,0,1,1,1.413-1.413l3,3A1,1,0,0,1,152.5,149" transform="translate(-99.023 -96.022)" fill="#8f74a2" stroke="#8f74a2" stroke-width="1"/>
      <path id="Path_19701" data-name="Path 19701" d="M145,27.5a1,1,0,0,1-.707-1.706l3-3a1,1,0,1,1,1.413,1.413l-3,3A.992.992,0,0,1,145,27.5" transform="translate(-96.022 -15.003)" fill="#8f74a2" stroke="#8f74a2" stroke-width="1"/>
      <path id="Path_19702" data-name="Path 19702" d="M23.5,149a1,1,0,0,1-.707-1.706l3-3a1,1,0,1,1,1.413,1.413l-3,3A.992.992,0,0,1,23.5,149" transform="translate(-15.003 -96.022)" fill="#8f74a2" stroke="#8f74a2" stroke-width="1"/>
      <path id="Path_19703" data-name="Path 19703" d="M61.32,76.992c-.1,0-.2,0-.3-.007a16.608,16.608,0,0,1-1.928-.115,1,1,0,0,1-.844-.7l-.617-2.038a.5.5,0,0,0-.344-.337c-.294-.082-.594-.177-.892-.283a.505.505,0,0,0-.167-.029.5.5,0,0,0-.3.1L54.2,74.9a1,1,0,0,1-1.082.083,16.367,16.367,0,0,1-3.149-2.235A.994.994,0,0,1,49.7,71.67l.717-2a.5.5,0,0,0-.08-.481c-.178-.222-.356-.461-.529-.71a.5.5,0,0,0-.41-.215l-2.21.066a1.018,1.018,0,0,1-.932-.57,15.745,15.745,0,0,1-1.215-3.633.993.993,0,0,1,.418-1.026l1.789-1.21a.5.5,0,0,0,.219-.432c-.005-.142-.008-.287-.009-.431s0-.29.006-.434a.5.5,0,0,0-.222-.429l-1.794-1.2a1,1,0,0,1-.426-1.026,15.945,15.945,0,0,1,1.195-3.64,1.01,1.01,0,0,1,.943-.575l2.194.054a.5.5,0,0,0,.412-.218c.169-.247.346-.487.526-.716a.5.5,0,0,0,.077-.481l-.728-1.99A1,1,0,0,1,49.9,49.3a16.274,16.274,0,0,1,3.135-2.253,1,1,0,0,1,.484-.126.986.986,0,0,1,.6.2l1.742,1.307a.5.5,0,0,0,.468.071c.3-.108.6-.2.89-.286a.5.5,0,0,0,.343-.339l.606-2.041A1,1,0,0,1,59,45.124,18.125,18.125,0,0,1,60.99,45a16.5,16.5,0,0,1,1.9.112,1,1,0,0,1,.84.7l.619,2.038a.5.5,0,0,0,.344.336c.289.081.589.175.891.282a.5.5,0,0,0,.468-.074l1.734-1.316a.988.988,0,0,1,.6-.2,1.006,1.006,0,0,1,.479.123,16.487,16.487,0,0,1,3.148,2.238.994.994,0,0,1,.27,1.078l-.716,2a.5.5,0,0,0,.079.48c.184.232.362.472.531.714a.5.5,0,0,0,.41.214l2.21-.066a1.019,1.019,0,0,1,.932.571,15.672,15.672,0,0,1,1.212,3.634,1,1,0,0,1-.419,1.025l-1.785,1.209a.5.5,0,0,0-.219.433c.006.143.008.286.008.43s0,.288-.006.43a.5.5,0,0,0,.222.433l1.793,1.2a1,1,0,0,1,.424,1.022,15.674,15.674,0,0,1-1.192,3.642,1.007,1.007,0,0,1-.911.575L72.636,68.2a.5.5,0,0,0-.412.218c-.164.239-.336.472-.525.714a.5.5,0,0,0-.076.48l.727,1.993a1,1,0,0,1-.264,1.08,16.311,16.311,0,0,1-3.138,2.253,1.015,1.015,0,0,1-.484.123.984.984,0,0,1-.6-.2l-1.741-1.308a.5.5,0,0,0-.469-.071c-.3.107-.6.2-.889.287a.5.5,0,0,0-.342.338l-.608,2.042a1,1,0,0,1-.84.708,14.151,14.151,0,0,1-1.657.13m-5.328-5.711a1,1,0,0,1,.393.08,11.617,11.617,0,0,0,2.164.684,1,1,0,0,1,.751.688l.57,1.881a.5.5,0,0,0,.453.354l.078,0c.158.008.314.016.47.016.06,0,.121,0,.181,0h.02c.206,0,.433-.008.665-.019a.5.5,0,0,0,.454-.357l.561-1.886a1,1,0,0,1,.747-.692,11.8,11.8,0,0,0,2.16-.694,1.005,1.005,0,0,1,1,.118l1.606,1.207a.5.5,0,0,0,.572.02c.387-.251.765-.521,1.121-.8a.5.5,0,0,0,.159-.563l-.668-1.83a1,1,0,0,1,.2-1.013,11.364,11.364,0,0,0,1.326-1.8,1.037,1.037,0,0,1,.9-.491l2.022.05a.5.5,0,0,0,.466-.32c.158-.41.3-.835.416-1.263a.5.5,0,0,0-.2-.548L72.92,63a1,1,0,0,1-.439-.925c.037-.392.054-.756.053-1.113s-.02-.732-.059-1.117a1,1,0,0,1,.434-.926l1.64-1.109a.5.5,0,0,0,.2-.549c-.118-.419-.26-.843-.421-1.261a.5.5,0,0,0-.466-.319l-2.038.062a1.044,1.044,0,0,1-.886-.484,11.481,11.481,0,0,0-1.338-1.8,1,1,0,0,1-.2-1.01l.657-1.83a.5.5,0,0,0-.161-.561,13.808,13.808,0,0,0-1.13-.8.5.5,0,0,0-.57.024L66.6,50.5a.992.992,0,0,1-.605.2,1.014,1.014,0,0,1-.394-.079,11.693,11.693,0,0,0-2.162-.682,1,1,0,0,1-.749-.688l-.571-1.88a.5.5,0,0,0-.456-.354c-.12-.005-.238-.007-.357-.008s-.217,0-.326-.008h-.024c-.248,0-.476.008-.7.019a.5.5,0,0,0-.453.357l-.559,1.883a1,1,0,0,1-.746.694,11.909,11.909,0,0,0-2.162.694.986.986,0,0,1-.4.082,1.011,1.011,0,0,1-.6-.2l-1.606-1.206a.5.5,0,0,0-.571-.021c-.384.248-.762.519-1.122.8a.5.5,0,0,0-.159.563l.668,1.825a.993.993,0,0,1-.195,1.01,11.518,11.518,0,0,0-1.329,1.8,1.059,1.059,0,0,1-.9.49L48.1,55.75a.5.5,0,0,0-.466.32c-.157.406-.3.831-.417,1.262a.5.5,0,0,0,.2.549l1.647,1.1a1,1,0,0,1,.44.933,10.809,10.809,0,0,0-.053,1.109,11,11,0,0,0,.059,1.105,1,1,0,0,1-.433.935l-1.642,1.109a.5.5,0,0,0-.2.55c.12.423.262.848.423,1.261a.5.5,0,0,0,.465.319l2.038-.062a1.04,1.04,0,0,1,.885.484,11.257,11.257,0,0,0,1.337,1.792,1,1,0,0,1,.2,1.012l-.658,1.833a.5.5,0,0,0,.162.562c.366.287.745.555,1.126.8a.5.5,0,0,0,.571-.024l1.6-1.215a.987.987,0,0,1,.6-.2" transform="translate(-30.006 -30.008)" fill="#8f74a2" stroke="#8f74a2" stroke-width="1"/>
      <path id="Path_19704" data-name="Path 19704" d="M79,85.993a7,7,0,1,1,3.5-13.055A1,1,0,0,1,82,74.8a.991.991,0,0,1-.5-.135A5,5,0,1,0,83.994,79a1,1,0,0,1,2,0,7,7,0,0,1-7,7" transform="translate(-48.011 -48.012)" fill="#8f74a2" stroke="#8f74a2" stroke-width="1"/>
    </g>
  </g>
</svg>
