<svg xmlns="http://www.w3.org/2000/svg" width="72.211" height="67.933" viewBox="0 0 72.211 67.933">
  <g id="Group_22841" data-name="Group 22841" transform="translate(0.3 0.3)">
    <g id="handshake" transform="translate(0)">
      <path id="Path_19730" data-name="Path 19730" d="M5.871,41.8h27.5l3.733,3.457L26.6,51.635v3.181h6.777l5.24-3.181,11.1,10.9-5.959,7.28-3.719,2.427-1.421-2.427-1.506,2.427H33.373L18.073,59.21H4.518Z" transform="translate(-3.978 -6.112)" fill="#fddad2"/>
      <rect id="Rectangle_14722" data-name="Rectangle 14722" width="23" height="14" transform="translate(25.147)" fill="#fddad2"/>
      <path id="Path_19375" data-name="Path 19375" d="M18.146,60.537H4.961a.983.983,0,0,1-.983-.983V41.74a.983.983,0,0,1,.983-.983H33.227a.968.968,0,0,1,.623.225l3.96,3.248a.984.984,0,0,1-1.25,1.521l-3.688-3.024H5.944V58.576h12.2a.981.981,0,1,1,0,1.961Z" transform="translate(-3.978 -6.112)" fill="#8f74a2" stroke="#8f74a2" stroke-width="0.6"/>
      <path id="Path_19376" data-name="Path 19376" d="M35.8,73.446a3.85,3.85,0,0,1-2.364-.805l-15.89-12.31a.987.987,0,0,1-.379-.777V41.74a.983.983,0,0,1,1.966,0V59.072L34.635,71.087a1.9,1.9,0,0,0,2.392-.056l.871-.744a.983.983,0,1,1,1.278,1.493l-.871.744A3.84,3.84,0,0,1,35.8,73.446Zm38.81-12.909H61.422a.983.983,0,0,1,0-1.966h12.2V42.723H42.836a.983.983,0,0,1,0-1.966H74.606a.983.983,0,0,1,.983.983V59.554A.983.983,0,0,1,74.606,60.537Z" transform="translate(-3.978 -6.112)" fill="#8f74a2" stroke="#8f74a2" stroke-width="0.6"/>
      <path id="Path_19377" data-name="Path 19377" d="M61.422,60.537a.983.983,0,0,1-.983-.983V41.74a.983.983,0,0,1,1.966,0V59.554A.983.983,0,0,1,61.422,60.537ZM43.748,70.708a.986.986,0,0,1-.7-.29L32.74,60.036a.983.983,0,1,1,1.395-1.385L44.446,69.032a.983.983,0,0,1-.7,1.676Zm3.3-3.225a.986.986,0,0,1-.7-.29L36.035,56.811a.983.983,0,0,1,1.395-1.385L47.741,65.807a.983.983,0,0,1,0,1.39A1,1,0,0,1,47.043,67.483Z" transform="translate(-3.978 -6.112)" fill="#8f74a2" stroke="#8f74a2" stroke-width="0.6"/>
      <path id="Path_19378" data-name="Path 19378" d="M40.467,73.212a2.72,2.72,0,0,1-1.942-.805l-.674-.679,0,0-8.4-8.462a.983.983,0,1,1,1.395-1.385l8.4,8.458,0,0,.679.683a.778.778,0,0,0,1.091.009l7.372-7.217a.764.764,0,0,0,.234-.552.7.7,0,0,0-.019-.173v-.009a.731.731,0,0,0-.206-.365l-9.8-9.8L34.2,55.454a7.562,7.562,0,0,1-7.844-.159,3.041,3.041,0,0,1-1.418-2.644,3.072,3.072,0,0,1,1.549-2.621l6.248-3.609,9.595-5.528a.983.983,0,1,1,.983,1.7l-9.59,5.528-6.248,3.609a1.128,1.128,0,0,0-.566.959,1.074,1.074,0,0,0,.5.945,5.605,5.605,0,0,0,5.813.122l5.046-2.916A.985.985,0,0,1,39.461,51l10.33,10.33a2.751,2.751,0,0,1,.73,1.306,2.594,2.594,0,0,1,.075.632,2.732,2.732,0,0,1-.824,1.961L42.4,72.444A2.83,2.83,0,0,1,40.467,73.212Z" transform="translate(-3.978 -6.112)" fill="#8f74a2" stroke="#8f74a2" stroke-width="0.6"/>
      <path id="Path_19379" data-name="Path 19379" d="M49.566,63.832A.985.985,0,0,1,49.3,61.9l11.851-3.3a.984.984,0,1,1,.529,1.9l-11.851,3.3A.875.875,0,0,1,49.566,63.832ZM27.722,38.09a.983.983,0,0,1-.983-.983l0-30.006a.983.983,0,0,1,.983-.983l24.128,0a1,1,0,0,1,.7.286.97.97,0,0,1,.29.693l0,30.006a.983.983,0,0,1-.983.983ZM28.7,8.083l0,28.041,22.162,0,0-28.041Z" transform="translate(-3.978 -6.112)" fill="#8f74a2" stroke="#8f74a2" stroke-width="0.6"/>
      <path id="Path_19380" data-name="Path 19380" d="M31.888,12.253a.983.983,0,0,1,0-1.966h15.8a.983.983,0,1,1,0,1.966Zm0,4.737a.983.983,0,0,1,0-1.966h15.8a.983.983,0,1,1,0,1.966Zm0,4.723a.983.983,0,0,1,0-1.966h15.8a.983.983,0,1,1,0,1.966Zm7.39,9.047a1,1,0,0,1-.7-.286l-.744-.744a.983.983,0,0,1,1.39-1.39l.047.047,1.062-1.062a.983.983,0,0,1,1.39,1.39L39.971,30.47A.97.97,0,0,1,39.278,30.76Z" transform="translate(-3.978 -6.112)" fill="#8f74a2"/>
      <path id="Path_19381" data-name="Path 19381" d="M39.784,33.919A5.022,5.022,0,1,1,44.806,28.9,5.029,5.029,0,0,1,39.784,33.919Zm0-8.083a3.056,3.056,0,1,0,3.056,3.056A3.06,3.06,0,0,0,39.784,25.836Z" transform="translate(-3.978 -6.112)" fill="#8f74a2" stroke="#8f74a2" stroke-width="0.6"/>
    </g>
  </g>
</svg>
