<?xml version="1.0" encoding="utf-8"?>
<!-- Generator: Adobe Illustrator 27.3.1, SVG Export Plug-In . SVG Version: 6.00 Build 0)  -->
<svg version="1.1" id="Layer_1" xmlns="http://www.w3.org/2000/svg" xmlns:xlink="http://www.w3.org/1999/xlink" x="0px" y="0px"
	 viewBox="0 0 65 65" style="enable-background:new 0 0 65 65;" xml:space="preserve">
<style type="text/css">
	.st0{fill:#FBDAD2;stroke:#9176A2;stroke-width:2;stroke-linecap:round;stroke-linejoin:round;stroke-miterlimit:10;}
	.st1{fill:none;stroke:#9075A2;stroke-width:2;stroke-miterlimit:10;}
</style>
<path class="st0" d="M41.1,42.5l10.1-8.9c1.2-1.2,3.2-1.2,4.4,0c1.2,1.2,1.2,3.2,0,4.4L36.1,56.7l-12.2-1.1l-4.1,4.7L8.5,49
	l10.1-10.3l19.7,1.9c1.7,0.2,3,1.7,2.8,3.4c-0.2,1.7-1.7,3-3.4,2.8l-9.8-1"/>
<path class="st1" d="M22.5,31.4c1.9,2.3,4.4,4.1,7.3,5c-0.8-2.1-1.5-4.1-2-6.1C25.9,30.7,24.1,31,22.5,31.4z"/>
<path class="st1" d="M27.9,30.4c0.5,2,1.1,4,2,6.1c1.6,0.6,3.4,0.9,5.2,0.9v-7.4C32.5,29.9,30.1,30.1,27.9,30.4z"/>
<path class="st1" d="M26.9,21.7h-8.1c0.2,3.7,1.5,7.1,3.7,9.7c1.6-0.4,3.4-0.8,5.4-1C27.2,27.4,26.9,24.4,26.9,21.7z"/>
<path class="st1" d="M39.9,36.6c3.2-1,5.9-2.9,7.9-5.4c-2-0.4-4-0.7-5.9-0.9C41.5,32.3,40.8,34.4,39.9,36.6z"/>
<path class="st1" d="M42.9,21.7c0,2.7-0.3,5.5-1,8.5c1.9,0.2,3.8,0.5,5.9,0.9c2.1-2.6,3.4-5.9,3.5-9.5H42.9z"/>
<path class="st1" d="M27.8,13c-2.4-0.3-4.5-0.7-6.3-1.1c-1.7,2.6-2.8,5.7-2.8,9.1c0,0.2,0,0.5,0,0.7h8.1
	C26.9,18.6,27.2,15.7,27.8,13z"/>
<path class="st1" d="M35.1,29.9v7.4c1.7,0,3.3-0.3,4.8-0.7c0.9-2.2,1.6-4.3,2.1-6.4C39.5,30,37.2,29.9,35.1,29.9z"/>
<path class="st1" d="M30.4,5.4c-3.7,1.1-6.8,3.4-8.9,6.5c1.9,0.4,4,0.8,6.3,1.1C28.5,10.1,29.4,7.5,30.4,5.4z"/>
<path class="st1" d="M35.1,29.9c2.2,0,4.5,0.1,6.9,0.4c0.7-3,1-5.8,1-8.5h-7.9V29.9z"/>
<path class="st1" d="M41.9,12.9c-2.4,0.3-4.7,0.5-6.9,0.5v8.3h7.9C42.9,18.5,42.5,15.6,41.9,12.9z"/>
<path class="st1" d="M35.1,13.4c-2.6,0-5-0.1-7.2-0.4c-0.6,2.6-1,5.5-1,8.7h8.2V13.4z"/>
<path class="st1" d="M26.9,21.7c0,2.7,0.3,5.7,1,8.7c2.2-0.3,4.6-0.5,7.2-0.5v-8.2H26.9z"/>
<path class="st1" d="M35.1,13.4V4.7c-1.6,0-3.2,0.2-4.6,0.7c-1,2.2-1.9,4.7-2.6,7.7C30,13.3,32.5,13.4,35.1,13.4z"/>
<path class="st1" d="M48.4,11.7c-2.2-3.1-5.4-5.4-9.1-6.4c1,2.1,1.9,4.7,2.6,7.6C44,12.6,46.2,12.2,48.4,11.7z"/>
<path class="st1" d="M41.9,12.9c-0.7-2.9-1.6-5.5-2.6-7.6c-1.4-0.4-2.8-0.6-4.3-0.6v8.7C37.2,13.4,39.5,13.2,41.9,12.9z"/>
<path class="st1" d="M42.9,21.7h8.4c0-0.2,0-0.5,0-0.7c0-3.5-1.1-6.7-2.9-9.3c-2.2,0.5-4.4,0.9-6.5,1.2
	C42.5,15.6,42.9,18.5,42.9,21.7z"/>
</svg>
