<svg id="Group_22781" data-name="Group 22781" xmlns="http://www.w3.org/2000/svg" width="55.067" height="65.715" viewBox="0 0 55.067 65.715">
  <path id="Path_19740" data-name="Path 19740" d="M3.009,23.609l12.337,5.813h5.979l9.854-5.813h2.554v2.359l-2.554,3.454L23.974,33.3V59.043l-.96,3.013-2.907,1.436-1.723-1.436-3.895,1.436-2.62-2.352V33.3l-8.86-6.02L.792,25.969Z" fill="#fddad2"/>
  <circle id="Ellipse_1749" data-name="Ellipse 1749" cx="4.5" cy="4.5" r="4.5" transform="translate(13.287 16)" fill="#fddad2"/>
  <path id="Path_19711" data-name="Path 19711" d="M48.758,65.911a5.724,5.724,0,1,1,5.724-5.724,5.73,5.73,0,0,1-5.724,5.724m0-8.92a3.2,3.2,0,1,0,3.2,3.2,3.2,3.2,0,0,0-3.2-3.2" transform="translate(-31.025 -39.265)" fill="#8f74a2"/>
  <path id="Path_19712" data-name="Path 19712" d="M50.62,11.388l4.192-5.545A1.2,1.2,0,0,0,53.8,3.9H32.937V1.264a1.256,1.256,0,1,0-2.511,0V22.729l-9.633,5.093H15.286L4.624,22.483a3.2,3.2,0,0,0-1.44-.343A3.122,3.122,0,0,0,0,25.174l0,.089c0,1.839,1.418,2.749,3.061,3.8.9.579.087.045,7.557,5.006V60.591a4.175,4.175,0,0,0,7.116,2.662,3.939,3.939,0,0,0,2.911,1.253,4.013,4.013,0,0,0,4.2-3.915V34.07l5.578-3.7V64.451a1.256,1.256,0,1,0,2.511,0V28.723c1.4-.924,2.529-1.822,2.529-3.46l0-.092a3.077,3.077,0,0,0-2.526-2.952V18.973H53.8a1.273,1.273,0,0,0,1.01-2.034ZM31.042,26.934c-.741.476-.162.1-7.883,5.224l-.837.871V60.591c0,1.807-3.324,1.9-3.324,0V45.525H16.469V60.591c0,1.783-3.323,1.772-3.323,0V33.029l-.6-.664c-8.035-5.391-7.155-4.808-8.124-5.43-1.345-.862-1.895-1.256-1.895-1.708a.66.66,0,0,1,.963-.486l11.2,5.609H21.42l10.565-5.587a.638.638,0,0,1,.952.5c0,.416-.55.809-1.895,1.672m1.895-10.473V6.415H51.265l-3.237,4.253a1.21,1.21,0,0,0,0,1.482l3.237,4.311Z" fill="#8f74a2"/>
</svg>
