<svg xmlns="http://www.w3.org/2000/svg" width="77.844" height="67.333" viewBox="0 0 77.844 67.333">
  <g id="Group_22844" data-name="Group 22844" transform="translate(0 0)">
    <path id="Path_19371" data-name="Path 19371" d="M67.55,48.506a1.46,1.46,0,0,0-1.994.532A30.751,30.751,0,0,1,8.175,33.664a1.459,1.459,0,0,0-1.46-1.46H3.106a.183.183,0,0,1-.142-.3l3.609-4.429a.183.183,0,0,1,.283,0L8.6,29.616a1.46,1.46,0,1,0,2.263-1.844L9.12,25.633a3.1,3.1,0,0,0-4.809,0L.7,30.062a3.1,3.1,0,0,0,2.4,5.061h2.18A33.676,33.676,0,0,0,55.993,62.687,33.855,33.855,0,0,0,68.082,50.5a1.46,1.46,0,0,0-.532-1.994m9.99-14.532a3.076,3.076,0,0,0-2.8-1.771h-2.18A33.675,33.675,0,0,0,21.851,4.64,33.855,33.855,0,0,0,9.762,16.826a1.46,1.46,0,0,0,2.527,1.462A30.751,30.751,0,0,1,69.67,33.664a1.46,1.46,0,0,0,1.46,1.46h3.609a.183.183,0,0,1,.142.3L71.271,39.85a.183.183,0,0,1-.284,0l-1.743-2.139a1.46,1.46,0,1,0-2.263,1.844l1.743,2.139a3.1,3.1,0,0,0,4.809,0l3.609-4.429a3.076,3.076,0,0,0,.4-3.291" transform="translate(0 0.003)" fill="#8f74a2"/>
    <g id="_2530819_general_group_office_personal_relation_icon" data-name="2530819_general_group_office_personal_relation_icon" transform="translate(16.843 16.157)">
      <g id="Group_22838" data-name="Group 22838" transform="translate(13.151 1.611)">
        <path id="Path_19719" data-name="Path 19719" d="M38.971,28.59a7.264,7.264,0,1,0-7.262-7.265A7.273,7.273,0,0,0,38.971,28.59Z" transform="translate(-29.535 -14.062)" fill="#fddad2"/>
        <path id="Path_19720" data-name="Path 19720" d="M42.112,40.629a8.068,8.068,0,0,1-5.353,2.033,8.212,8.212,0,0,1-5.368-2c-.012.008-.134.02-.147.026-2.347,1.11-3.865,3.028-3.865,5.4V59.154h18.5V46.089A5.971,5.971,0,0,0,42.112,40.629Z" transform="translate(-27.379 -27.293)" fill="#fddad2"/>
      </g>
      <path id="Path_19721" data-name="Path 19721" d="M11.5,37.754V44.11H3.928V36.641a3.31,3.31,0,0,1,2.15-3.021,5.181,5.181,0,0,0,3.26,1.15,5.072,5.072,0,0,0,3.068-1.033l.607.427A6.566,6.566,0,0,0,11.5,37.754ZM9.415,33.93a4.157,4.157,0,1,1,4.159-4.157A4.161,4.161,0,0,1,9.415,33.93Z" transform="translate(-2.548 -18.205)" fill="#fddad2"/>
      <path id="Path_19722" data-name="Path 19722" d="M69.206,34.4l.665-.427A5.034,5.034,0,0,0,72.921,35a5.1,5.1,0,0,0,3.23-1.15,3.245,3.245,0,0,1,2.084,3.021v7.352H70.669V37.987A6.308,6.308,0,0,0,69.206,34.4ZM68.719,30a4.157,4.157,0,1,1,4.159,4.157A4.163,4.163,0,0,1,68.719,30Z" transform="translate(-34.816 -18.321)" fill="#fddad2"/>
      <g id="Group_22840" data-name="Group 22840">
        <g id="Group_22839" data-name="Group 22839">
          <path id="Path_19723" data-name="Path 19723" d="M36.98,28.744A8.945,8.945,0,1,1,45.926,19.8,8.956,8.956,0,0,1,36.98,28.744Zm0-15.368A6.423,6.423,0,1,0,43.4,19.8,6.429,6.429,0,0,0,36.98,13.375Z" transform="translate(-14.555 -10.853)" fill="#8f74a2"/>
          <path id="Path_19724" data-name="Path 19724" d="M59.572,58.525a1.261,1.261,0,0,1-1.261-1.261V44.577A5.1,5.1,0,0,0,55,39.859a1.261,1.261,0,1,1,1.049-2.294,7.593,7.593,0,0,1,4.785,7.012V57.264A1.261,1.261,0,0,1,59.572,58.525Z" transform="translate(-27.616 -24.099)" fill="#8f74a2"/>
          <path id="Path_19725" data-name="Path 19725" d="M25.865,58.609A1.261,1.261,0,0,1,24.6,57.348V44.661a7.52,7.52,0,0,1,4.6-6.922,1.261,1.261,0,0,1,1.079,2.28,4.964,4.964,0,0,0-3.158,4.642V57.347A1.261,1.261,0,0,1,25.865,58.609Z" transform="translate(-12.845 -24.183)" fill="#8f74a2"/>
          <path id="Path_19726" data-name="Path 19726" d="M9.059,34.013A5.838,5.838,0,1,1,14.9,28.174,5.844,5.844,0,0,1,9.059,34.013Zm0-9.154a3.315,3.315,0,1,0,3.318,3.315A3.319,3.319,0,0,0,9.059,24.858Z" transform="translate(-2.197 -16.572)" fill="#8f74a2"/>
          <path id="Path_19727" data-name="Path 19727" d="M2.44,51.65a1.261,1.261,0,0,1-1.261-1.261V43.024a4.845,4.845,0,0,1,2.96-4.541,1.261,1.261,0,0,1,1.08,2.279A2.353,2.353,0,0,0,3.7,43.024v7.364A1.261,1.261,0,0,1,2.44,51.65Z" transform="translate(-1.179 -24.553)" fill="#8f74a2"/>
          <path id="Path_19728" data-name="Path 19728" d="M71.161,34.013A5.838,5.838,0,1,1,77,28.174,5.845,5.845,0,0,1,71.161,34.013Zm0-9.154a3.315,3.315,0,1,0,3.315,3.315A3.319,3.319,0,0,0,71.161,24.858Z" transform="translate(-33.125 -16.572)" fill="#8f74a2"/>
          <path id="Path_19729" data-name="Path 19729" d="M84.713,51.609a1.261,1.261,0,0,1-1.261-1.261V42.984a2.378,2.378,0,0,0-1.578-2.3,1.261,1.261,0,0,1,1.05-2.293,4.867,4.867,0,0,1,3.05,4.589v7.364A1.261,1.261,0,0,1,84.713,51.609Z" transform="translate(-41.001 -24.513)" fill="#8f74a2"/>
        </g>
      </g>
    </g>
  </g>
</svg>
