<svg xmlns="http://www.w3.org/2000/svg" width="65.295" height="61.556" viewBox="0 0 65.295 61.556">
  <g id="Group_22845" data-name="Group 22845" transform="translate(0 0)">
    <path id="Path_19739" data-name="Path 19739" d="M910.953,1408.671h38.285l2.007,8.2-2.007,10.584-6.466,3.688v4.981l-8.033,2.162-4.2-2.162-2.679-3.21-8.712,1.292-6.443-1.292-1.755-4.295-2-3.151v-6.816Z" transform="translate(-907.36 -1387.444)" fill="#fddad2"/>
    <circle id="Ellipse_1747" data-name="Ellipse 1747" cx="5.5" cy="5.5" r="5.5" transform="translate(7.06 4.556)" fill="#fddad2"/>
    <circle id="Ellipse_1746" data-name="Ellipse 1746" cx="5.5" cy="5.5" r="5.5" transform="translate(25.06 3.556)" fill="#fddad2"/>
    <circle id="Ellipse_1748" data-name="Ellipse 1748" cx="5.5" cy="5.5" r="5.5" transform="translate(45.06 4.556)" fill="#fddad2"/>
    <g id="_8687694_ic_fluent_people_team_add_icon" data-name="8687694_ic_fluent_people_team_add_icon" transform="translate(0 0)">
      <path id="Path_19732" data-name="Path 19732" d="M29.453,8.014a3.846,3.846,0,0,1,3.819,3.4l.026.448v.312a20.981,20.981,0,0,0-3.845,1.113V11.859h-19.1V28.65a9.555,9.555,0,0,0,6.262,8.97,20.986,20.986,0,0,0,1.476,4.3A13.4,13.4,0,0,1,6.526,29.385l-.02-.735V11.859A3.845,3.845,0,0,1,9.9,8.04l.448-.026Z" transform="translate(10.754 11.305)" fill="#8f74a2"/>
      <path id="Path_19733" data-name="Path 19733" d="M15.335,11.806q.776,0,1.537.055h8.04v2.233a21.163,21.163,0,0,1,3.845,2.517v-4.75l-.026-.448a3.845,3.845,0,0,0-3.819-3.4l-10.7,0a7.645,7.645,0,0,1,1.009,3.273l.019.519Z" transform="translate(32.66 11.304)" fill="#8f74a2"/>
      <path id="Path_19734" data-name="Path 19734" d="M16.462,8.014a7.641,7.641,0,0,0-1,3.154l-.031.693H5.861V26.236a7.14,7.14,0,0,0,10.063,6.511,16.944,16.944,0,0,0,1.324,3.614A10.981,10.981,0,0,1,2.035,26.881l-.019-.645V11.861a3.845,3.845,0,0,1,3.4-3.819l.448-.026Z" transform="translate(-2.017 11.304)" fill="#8f74a2"/>
      <path id="Path_19735" data-name="Path 19735" d="M16.324,2.989a8.563,8.563,0,1,1-8.563,8.563A8.563,8.563,0,0,1,16.324,2.989Zm0,3.845a4.719,4.719,0,1,0,4.719,4.719A4.719,4.719,0,0,0,16.324,6.834Z" transform="translate(14.324 -2.989)" fill="#8f74a2"/>
      <path id="Path_19736" data-name="Path 19736" d="M20.418,3.617a7.356,7.356,0,1,1-7.356,7.356A7.356,7.356,0,0,1,20.418,3.617Zm0,3.845a3.511,3.511,0,1,0,3.511,3.511A3.511,3.511,0,0,0,20.418,7.462Z" transform="translate(29.404 -1.202)" fill="#8f74a2"/>
      <path id="Path_19737" data-name="Path 19737" d="M10.46,3.617A7.356,7.356,0,1,1,3.1,10.973,7.356,7.356,0,0,1,10.46,3.617Zm0,3.845a3.511,3.511,0,1,0,3.511,3.511A3.511,3.511,0,0,0,10.46,7.462Z" transform="translate(1.076 -1.202)" fill="#8f74a2"/>
      <path id="Path_19738" data-name="Path 19738" d="M44.6,27.3A17.3,17.3,0,1,1,27.3,10,17.3,17.3,0,0,1,44.6,27.3ZM29.223,19.612a1.922,1.922,0,1,0-3.845,0v5.767H19.612a1.922,1.922,0,1,0,0,3.845h5.767V34.99a1.922,1.922,0,1,0,3.845,0V29.223H34.99a1.922,1.922,0,1,0,0-3.845H29.223Z" transform="translate(20.693 16.954)" fill="#8f74a2"/>
    </g>
  </g>
</svg>
