<?xml version="1.0" encoding="utf-8"?>
<!-- Generator: Adobe Illustrator 27.3.1, SVG Export Plug-In . SVG Version: 6.00 Build 0)  -->
<svg version="1.1" id="Layer_1" xmlns="http://www.w3.org/2000/svg" xmlns:xlink="http://www.w3.org/1999/xlink" x="0px" y="0px"
	 viewBox="0 0 65 65" style="enable-background:new 0 0 65 65;" xml:space="preserve">
<style type="text/css">
	.st0{fill:none;stroke:#9075A2;stroke-width:2;stroke-linecap:round;stroke-linejoin:round;stroke-miterlimit:10;}
	.st1{fill:#FBDAD2;stroke:#9075A2;stroke-width:2;stroke-linecap:round;stroke-linejoin:round;stroke-miterlimit:10;}
</style>
<path class="st0" d="M42,31.9c0,5.2-4.2,9.5-9.5,9.5c-5.2,0-9.5-4.2-9.5-9.5c0-5.2,4.2-9.5,9.5-9.5C37.7,22.5,42,26.7,42,31.9z
	 M51.3,31.9c0,10.4-8.4,18.8-18.8,18.8s-18.8-8.4-18.8-18.8s8.4-18.8,18.8-18.8S51.3,21.6,51.3,31.9z M53.1,16.8
	c3.1,4.2,5,9.5,5,15.1c0,14.1-11.4,25.5-25.5,25.5C18.4,57.5,7,46.1,7,31.9C7,17.8,18.4,6.4,32.5,6.4c6,0,11.5,2,15.8,5.5"/>
<line class="st0" x1="45.8" y1="18.6" x2="32.5" y2="31.9"/>
<line class="st0" x1="45.9" y1="14.3" x2="50.9" y2="19"/>
<path class="st0" d="M49.7,51.9l4.4,5.9 M16.5,51.9L11,58.6"/>
<polygon class="st1" points="51.7,8.5 43.8,16.4 48.6,21.3 56.6,13.4 50.2,14.9 "/>
</svg>
